<svg width="199" height="207" viewBox="0 0 199 207" fill="none" xmlns="http://www.w3.org/2000/svg">
<path id="Vector" d="M34.9497 206.467C21.9133 206.461 13.3711 197.331 9.91009 189.345C7.95543 185.356 0.195984 168.598 0.195984 154.047C0.195984 139.848 8.61305 126.366 21.1146 119.279V117.137C21.1146 108.846 27.9093 102.1 36.2604 102.1H45.5785C41.519 89.1262 37.0135 62.6673 56.9492 39.8773C59.8436 36.5812 64.0078 34.7016 68.3904 34.7016C68.4223 34.7016 68.4541 34.7016 68.4883 34.7016C79.7178 19.7801 102.352 0.21608 143.8 0.21608C157.105 0.21608 171.609 2.27866 186.907 6.34734C191.713 7.63278 195.575 11.1683 197.25 15.8108C198.922 20.4827 198.185 25.6493 195.281 29.6547C194.173 31.1819 193.115 32.7226 192.073 34.2385L191.859 34.548C188.223 39.8456 184.452 45.3353 179.3 50.0885C175.878 53.2468 171.193 56.7032 165.739 59.6672C165.77 63.5461 164.282 67.3414 161.465 70.2309C136.514 95.7702 114.66 108.399 97.6601 114.444C97.8194 115.318 97.9036 116.218 97.9036 117.137V119.279C110.403 126.363 118.822 139.848 118.822 154.047C118.822 168.575 111.061 185.354 109.11 189.343C105.654 197.32 97.1231 206.447 84.1141 206.467H34.9497Z" fill="#F2F2F2"/>
</svg>
